# xmcd
#
# Track frame offsets:
#	150
#	12939
#	25937
#	41804
#	54635
#	64192
#	77052
#	99073
#	114398
#	130891
#	141149
#	156221
#	172548
#	187290
#	198654
#	214074
#	230162
#	250665
#	262611
#	275261
#	292544
#	308058
#	320858
#
# Disc length: 4402 seconds
#
# Revision: 0
# Processed by: cddbd v1.5.2PL0 Copyright (c) Steve Scherf et al.
# Submitted via: EasyCDDAExtractor 2010.4.0.0
#
DISCID=3e113017
DTITLE=Leonardo Favio  - Solo Exitos
DYEAR=1900
DGENRE=
TTITLE0=La dicha me fué negada
TTITLE1=Mi amante niña mi compañera
TTITLE2=Fuiste Mía un Verano
TTITLE3=Ding, Dong, Las Cosas del Amor 
TTITLE4=Mi Tristeza Es Mía y Nada Más 
TTITLE5=El Niño y el Canario 
TTITLE6=Ni el Clavel, Ni La Rosa 
TTITLE7=No Juegues Más Mi Amor
TTITLE8=O Quizás Simplemente le Regale una Rosa 
TTITLE9=Ella Ya Me Olvidó... Yo La Recuerdo Ahora 
TTITLE10=La Foto de Carnet 
TTITLE11=Quiero Aprender de Memoria 
TTITLE12=Chiquillada
TTITLE13=No Ser Dios y Cuidarlos 
TTITLE14=Fué aquel vals
TTITLE15=Yo Se Que Un Dia
TTITLE16=Para Saber Cómo Es La Soledad 
TTITLE17=Anny
TTITLE18=Así Es Carolita 
TTITLE19=La Conocí en el Parque 
TTITLE20=Con el Tilín Tilón 
TTITLE21=Y El Mundo Sigue Girando
TTITLE22=Maria va caminando a la vejez
EXTD=
EXTT0=
EXTT1=
EXTT2=
EXTT3=
EXTT4=
EXTT5=
EXTT6=
EXTT7=
EXTT8=
EXTT9=
EXTT10=
EXTT11=
EXTT12=
EXTT13=
EXTT14=
EXTT15=
EXTT16=
EXTT17=
EXTT18=
EXTT19=
EXTT20=
EXTT21=
EXTT22=
PLAYORDER=
